<?xml version="1.0" encoding="utf-8"?>
<!-- Generator: Adobe Illustrator 16.0.0, SVG Export Plug-In . SVG Version: 6.00 Build 0)  -->
<!DOCTYPE svg PUBLIC "-//W3C//DTD SVG 1.1//EN" "http://www.w3.org/Graphics/SVG/1.1/DTD/svg11.dtd">
<svg version="1.1" id="图层_1" xmlns="http://www.w3.org/2000/svg" xmlns:xlink="http://www.w3.org/1999/xlink" x="0px" y="0px"
	 width="80px" height="30px" viewBox="0 0 80 30" enable-background="new 0 0 80 30" xml:space="preserve">
<g fill="#000">
	<path d="M26.169,17.24c0,1.116-0.46,2.017-1.382,2.709c-0.849,0.638-1.878,0.959-3.089,0.959c-1.373,0-3.341-0.454-5.905-1.364
		c-1.988-0.708-3.965-1.419-5.933-2.127c-1.915,1.939-4.037,2.911-6.367,2.911c-0.794,0-1.562-0.194-2.303-0.582
		c-0.866-0.438-1.299-1.003-1.299-1.695c0-0.828,0.46-1.459,1.381-1.897c0.722-0.321,1.58-0.481,2.574-0.481
		c0.938,0,2.275,0.252,4.009,0.76c0.434-0.541,1.092-1.543,1.978-3.012c0.976-1.652,1.463-2.648,1.463-2.985
		c-0.379-0.978-0.569-1.619-0.569-1.922c0-0.473,0.099-0.709,0.298-0.709c0.271,0,0.551,0.262,0.839,0.785
		c0.47-1.063,0.777-3.053,0.922-5.971c-1.428-0.202-2.656-0.304-3.686-0.304c-0.993,0-1.824,0.085-2.493,0.253
		C4.84,3.039,3.955,4.059,3.955,5.628c0,1.45,0.894,2.767,2.682,3.947C6.727,9.609,6.772,9.65,6.772,9.702
		c0,0.051-0.036,0.075-0.108,0.075c-0.055,0-0.108-0.017-0.163-0.05c-2.402-1.282-3.603-2.809-3.603-4.58
		c0-1.012,0.442-1.813,1.327-2.403c0.74-0.506,1.689-0.818,2.844-0.936c0.452-0.051,0.957-0.077,1.518-0.077
		c1.172,0,2.581,0.119,4.225,0.355c0.018-0.32,0.027-0.649,0.027-0.987c0-0.05-0.01-0.11-0.027-0.177c0-0.084,0-0.143,0-0.177
		c0-0.102,0.018-0.152,0.055-0.152c0.018,0.018,0.044,0.034,0.081,0.051c0.127,0.354,0.189,0.844,0.189,1.467
		c1.066,0.152,2.511,0.397,4.334,0.734c1.554-1.856,3.117-2.784,4.688-2.784c1.391,0,2.085,0.54,2.085,1.62
		c0,0.203-0.045,0.304-0.134,0.304c-0.073,0-0.109-0.084-0.109-0.254c0-0.388-0.181-0.69-0.541-0.911
		c-0.325-0.167-0.704-0.252-1.138-0.252c-1.229,0-2.448,0.827-3.657,2.479c3.413,0.624,5.752,0.936,7.017,0.936
		c0.741,0,1.381-0.083,1.924-0.252c0.794-0.253,1.191-0.642,1.191-1.165c0-0.151-0.037-0.282-0.108-0.392
		c-0.073-0.11-0.109-0.182-0.109-0.215c0-0.051,0.028-0.075,0.082-0.075c0.144,0,0.267,0.147,0.365,0.442
		c0.099,0.296,0.148,0.527,0.148,0.696c0,1.214-1.046,1.821-3.142,1.821c-1.3,0-3.892-0.404-7.775-1.215
		c-0.469,0.709-1.644,2.869-3.522,6.478c0.705-0.236,1.842-0.354,3.414-0.354c2.131,0,3.819,0.201,5.066,0.607
		c0.108,0.034,0.162,0.067,0.162,0.101c0,0.068-0.045,0.101-0.136,0.101c-0.216,0-0.556-0.025-1.016-0.077
		c-0.46-0.05-0.809-0.075-1.044-0.075c-1.48,0-2.862,0.11-4.145,0.328c-2.077,0.354-3.115,0.945-3.115,1.771
		c0,0.135,0.055,0.303,0.163,0.506v0.05c-0.217,0-0.416-0.219-0.595-0.658c-1.138,1.958-2.24,3.516-3.306,4.682
		c1.897,0.52,3.793,1.043,5.689,1.568c2.294,0.606,4.226,0.91,5.798,0.91c1.011,0,1.878-0.143,2.601-0.431
		c0.976-0.403,1.462-1.013,1.462-1.819c0-0.609-0.279-1.347-0.84-2.216c-0.56-0.868-0.84-1.294-0.84-1.277
		c0-0.017,0.009-0.025,0.027-0.025c0.054,0,0.162,0.06,0.325,0.177C25.583,14.889,26.169,15.976,26.169,17.24z M8.588,17.039
		l-0.624-0.203c-0.108,0.119-0.29,0.296-0.542,0.531c-0.741,0.691-1.454,1.207-2.141,1.544c-0.037,0.017-0.063,0.025-0.081,0.025
		c-0.019,0-0.027-0.017-0.027-0.05c0-0.035,0.071-0.12,0.217-0.256c0.396-0.303,0.785-0.597,1.164-0.885
		c0.451-0.37,0.794-0.724,1.029-1.061c-1.391-0.423-2.619-0.635-3.684-0.635c-0.813,0-1.527,0.127-2.141,0.381
		c-0.795,0.338-1.192,0.843-1.192,1.517c0,0.593,0.298,1.054,0.894,1.392c0.524,0.305,1.111,0.457,1.761,0.457
		c0.867,0,1.86-0.297,2.98-0.886C7.268,18.336,8.063,17.713,8.588,17.039z M13.137,2.676c-0.054,1.887-0.334,3.79-0.839,5.709
		c0.253-0.135,0.443-0.203,0.569-0.203c0.144,0,0.217,0.11,0.217,0.33c0,0.472-0.498,1.155-1.491,2.049
		c-0.705,1.687-1.833,3.685-3.387,5.997l0.57,0.177c0.848-0.826,1.932-2.453,3.25-4.879c0.776-1.432,1.552-2.873,2.33-4.323
		c0.92-1.651,1.813-3.033,2.681-4.145C15.466,3.066,14.165,2.83,13.137,2.676z"/>
	<path d="M32.427,18.533c-1.572,0-2.628-1.613-3.169-4.834c-0.181,0.136-0.732,0.641-1.653,1.518
		c-0.379,0.338-0.921,0.853-1.625,1.542c-0.073,0.069-0.128,0.104-0.164,0.104c-0.054,0-0.081-0.034-0.081-0.104
		c0-0.083,0.063-0.192,0.189-0.327c0.542-0.523,1.354-1.333,2.438-2.429c0.18-0.186,0.434-0.472,0.758-0.86
		c0-0.304-0.118-0.962-0.352-1.974c-0.162,0.389-0.507,0.814-1.031,1.277c-0.524,0.464-1.02,0.806-1.489,1.024
		c-0.09,0.034-0.164,0.051-0.217,0.051c-0.037,0-0.054-0.017-0.054-0.051c0-0.066,0.081-0.151,0.243-0.252
		c1.427-0.927,2.122-1.703,2.085-2.327c0-0.135,0-0.178,0-0.127c0-0.219,0.083-0.418,0.245-0.595
		c0.162-0.177,0.361-0.265,0.595-0.265c0.073,0,0.128,0.009,0.164,0.025c0.289,0.084,0.542,0.911,0.759,2.479
		c0.326-0.254,0.82-0.75,1.488-1.493c0.634-0.691,1.13-1.147,1.491-1.367c0.107-0.083,0.19-0.126,0.244-0.126
		c0.037,0,0.053,0.026,0.053,0.076c0,0.084-0.044,0.177-0.133,0.278c-0.164,0.186-0.697,0.726-1.598,1.62
		c-0.669,0.658-1.157,1.231-1.464,1.72c0.488,3.273,1.427,4.91,2.816,4.91c0.308,0,0.85-0.186,1.627-0.558
		c0.054,0,0.081,0.019,0.081,0.052c0,0.049-0.045,0.107-0.136,0.177C33.817,18.253,33.113,18.533,32.427,18.533z"/>
	<path d="M39.552,15.349c0,0.622-0.335,1.127-1.003,1.514c-0.577,0.337-1.227,0.505-1.95,0.505c-0.451,0-0.966-0.098-1.543-0.298
		c-0.723-0.229-1.084-0.511-1.084-0.841c0-0.051,0.018-0.075,0.055-0.075c-0.091,0,0.157,0.14,0.745,0.417
		c0.587,0.278,1.125,0.419,1.611,0.419c0.49,0,0.936-0.131,1.342-0.393c0.407-0.262,0.61-0.611,0.61-1.05
		c0-1.115-0.804-2.505-2.413-4.175c-1.209,2.666-2.419,5.322-3.63,7.969c-1.462,3.407-2.193,6.132-2.193,8.174
		c0,1.5,0.523,2.251,1.571,2.251c0.688,0,1.516-0.278,2.492-0.835c-0.162,0.287-0.496,0.549-1.002,0.783
		c-0.506,0.237-0.949,0.354-1.327,0.354c-0.885,0-1.663-0.319-2.331-0.96c-0.668-0.643-1.002-1.384-1.002-2.228
		c0-1.466,0.949-4.114,2.844-7.943c1.409-2.666,2.818-5.331,4.227-7.995c-0.992-1.35-1.49-2.505-1.49-3.466
		c0-0.877,0.397-1.315,1.193-1.315c1.029,0,1.543,0.581,1.543,1.742c0,0.606-0.18,1.413-0.542,2.423
		c1.047,1.095,1.743,1.869,2.085,2.323C39.155,13.673,39.552,14.574,39.552,15.349z M35.976,10.106
		c0.307-0.658,0.46-1.392,0.46-2.201c0-0.979-0.334-1.468-1.002-1.468c-0.308,0-0.462,0.304-0.462,0.911
		C34.973,8.275,35.307,9.195,35.976,10.106z"/>
	<path d="M53.83,13.573c0.342-0.338,0.621-0.507,0.838-0.507c0.146,0,0.216,0.102,0.216,0.304c0,0.573-0.44,1.206-1.327,1.897
		c-0.414,0.996-1.204,1.881-2.368,2.656c-1.166,0.776-2.316,1.165-3.457,1.165c-0.088,0-0.132-0.023-0.132-0.075
		c0-0.102,0.07-0.153,0.216-0.153c0.216-0.016,0.561-0.067,1.028-0.149c0.851-0.221,1.653-0.63,2.412-1.227
		c0.757-0.602,1.318-1.271,1.68-2.013c-0.361-0.389-0.543-0.843-0.543-1.366c0-0.573,0.155-0.861,0.46-0.861
		c0.145,0,0.28,0.06,0.408,0.177c-0.162-1.062-0.843-2.014-2.032-2.858c-1.067-0.691-2.132-1.375-3.197-2.049
		c-1.12-0.895-1.68-1.949-1.68-3.163c0-0.675,0.238-1.253,0.719-1.733c0.476-0.481,1.078-0.737,1.802-0.771h0.056
		c1.317-1.199,3.112-1.796,5.388-1.796c1.953,0,3.307,0.413,4.065,1.24c0.271,0.287,0.405,0.59,0.405,0.911
		c0,0.573-0.397,1.004-1.19,1.29c-0.561,0.203-1.222,0.304-1.98,0.304c-0.72,0-1.525-0.092-2.409-0.278
		c-1.012-0.219-1.753-0.498-2.22-0.835c-0.037-0.017-0.058-0.042-0.058-0.076c0-0.051,0.028-0.076,0.084-0.076
		c0.035,0,0.069,0.009,0.105,0.025c1.05,0.642,2.522,0.962,4.419,0.962c0.613,0,1.154-0.093,1.624-0.279
		C57.794,4,58.11,3.646,58.11,3.174c0-0.64-0.496-1.121-1.491-1.443c-0.721-0.235-1.489-0.354-2.304-0.354
		c-2.364,0-3.982,0.709-4.848,2.126c-0.29,0.455-0.435,0.936-0.435,1.441c0,1.063,0.641,2.008,1.924,2.834
		c1.193,0.708,2.384,1.417,3.576,2.125c1.281,0.995,1.925,2.218,1.925,3.669c0,1.973-1.085,3.551-3.252,4.729
		c-1.822,0.996-3.873,1.495-6.149,1.495c-1.808,0-3.333-0.338-4.578-1.013c-1.537-0.828-2.304-2.025-2.304-3.592
		c0-1.586,0.757-2.994,2.274-4.227c1.446-1.18,3.025-1.771,4.742-1.771c0.741,0,1.112,0.068,1.112,0.203
		c0,0.084-0.272,0.109-0.814,0.075c-1.732,0-3.188,0.49-4.36,1.468c-1.23,1.028-1.844,2.344-1.844,3.947
		c0,1.416,0.508,2.544,1.517,3.389c1.013,0.844,2.294,1.267,3.849,1.267c1.317,0,2.778-0.295,4.388-0.886
		c2.836-1.081,4.254-2.742,4.254-4.985c0-1.298-0.651-2.42-1.951-3.366c-1.19-0.724-2.392-1.449-3.603-2.175
		c-1.284-0.877-1.923-1.873-1.923-2.986c0-0.774,0.307-1.484,0.922-2.125c-0.58,0.05-1.058,0.308-1.438,0.771
		c-0.379,0.464-0.568,0.974-0.568,1.531c0,1.181,0.577,2.21,1.732,3.086c1.103,0.709,2.213,1.418,3.333,2.126
		C53.026,11.431,53.702,12.442,53.83,13.573z"/>
	<path d="M60.224,17.771c-1.283,0-1.924-0.771-1.924-2.313c0-0.486,0.063-1.041,0.189-1.662c-0.145-0.101-0.29-0.284-0.436-0.554
		c0.129,0.05,0.31,0.119,0.543,0.204c0.197-0.827,0.74-1.662,1.627-2.505c0.957-0.912,1.858-1.367,2.708-1.367
		c0.197,0,0.3,0.025,0.3,0.075c0,0.035-0.128,0.118-0.38,0.252c-0.652,0.319-1.278,0.837-1.883,1.558
		c-0.608,0.723-1.045,1.427-1.313,2.114c0.018,0.016,0.035,0.033,0.053,0.05c0.866,0,1.768-0.391,2.707-1.17
		s1.411-1.565,1.411-2.354c0-0.251-0.073-0.478-0.216-0.678c-0.146-0.201-0.344-0.302-0.598-0.302c-0.343,0-0.749,0.131-1.22,0.392
		c-0.47,0.262-0.723,0.393-0.758,0.393s-0.053-0.009-0.053-0.025c0-0.219,0.313-0.438,0.947-0.658
		c0.543-0.203,0.966-0.304,1.272-0.304c0.417,0,0.763,0.109,1.043,0.328c0.279,0.219,0.42,0.521,0.42,0.908
		c0,0.891-0.623,1.757-1.871,2.599c-1.137,0.756-2.22,1.168-3.249,1.236c-0.146,0.369-0.216,0.756-0.216,1.16
		c0,1.396,0.541,2.093,1.625,2.093c0.813,0,1.679-0.334,2.602-1.003c0.775-0.588,1.408-1.256,1.896-2.01
		c0.16-0.234,0.298-0.352,0.408-0.352c0.018,0,0.025,0.017,0.025,0.05c0,0.084-0.074,0.235-0.216,0.453
		c-0.562,0.822-1.347,1.575-2.358,2.263C62.19,17.396,61.161,17.771,60.224,17.771z"/>
	<path d="M75.097,9.119c0.07,0,0.105,0.017,0.105,0.051c0,0.286-1.519,0.835-4.559,1.644c-0.737,1.316-1.23,2.251-1.484,2.809
		c-0.468,1.079-0.701,2.083-0.701,3.01c0,0.556,0.196,0.835,0.594,0.835c0.482,0,1.522-0.648,3.117-1.949
		c0.055,0,0.084,0.026,0.084,0.077s-0.029,0.127-0.084,0.228c-0.307,0.404-0.767,0.835-1.38,1.29
		c-0.723,0.542-1.292,0.809-1.707,0.809c-0.904,0-1.355-0.514-1.355-1.541c0-0.727,0.198-1.646,0.597-2.758
		c-0.162-0.439-0.523-0.785-1.084-1.039c-0.487-0.185-0.975-0.37-1.464-0.556c-0.234-0.102-0.354-0.278-0.354-0.531
		c0-0.27,0.128-0.431,0.379-0.481h0.733c0.956,0,1.961-0.102,3.007-0.304l0.029-0.05l1.788-3.694
		c0.162-0.387,0.423-0.953,0.784-1.695c0.145-0.304,0.498-0.457,1.059-0.457c0.378,0,0.567,0.086,0.567,0.254
		c0,0.034-0.334,0.746-1.002,2.138c-0.669,1.392-1.047,2.129-1.141,2.214c-0.088,0.084-0.242,0.219-0.458,0.405
		c-0.072,0.135-0.181,0.337-0.327,0.606c0.543-0.151,1.861-0.573,3.956-1.264C74.942,9.136,75.042,9.119,75.097,9.119z
		 M69.352,11.143c-0.923,0.204-1.832,0.373-2.734,0.507c0.937,0.455,1.544,0.995,1.812,1.62
		C68.685,12.611,68.99,11.902,69.352,11.143z"/>
	<path d="M77.725,15.52c-0.055,0.608-0.245,1.096-0.569,1.469c-0.361,0.42-0.851,0.631-1.464,0.631c-0.865,0-1.636-0.331-2.302-1
		c-0.67-0.666-1.002-1.395-1.002-2.188c0-0.521,0.143-0.785,0.435-0.785c0.16,0,0.341,0.127,0.54,0.38
		c0.541-1.181,1.309-2.512,2.304-3.998c0.612-0.911,1.354-1.366,2.222-1.366c0.179,0,0.392,0.057,0.636,0.171
		c0.241,0.114,0.365,0.252,0.365,0.417c0,0.114-0.12,0.171-0.354,0.171c-0.034,0-0.107,0-0.216,0c-0.091,0-0.163,0-0.216,0
		c-0.396,0-0.749,0.11-1.058,0.33c-0.307,0.219-0.46,0.515-0.46,0.885c0,0.135,0.028,0.278,0.08,0.43
		c0.216,0.675,0.435,1.35,0.653,2.025c0.251,0.809,0.379,1.5,0.379,2.074c0.503-0.084,0.92-0.253,1.244-0.506
		c0.217-0.186,0.506-0.523,0.868-1.013c0.053-0.066,0.107-0.1,0.162-0.1c0.054,0,0.08,0.034,0.08,0.1
		c0,0.052-0.018,0.111-0.052,0.178C79.404,14.77,78.646,15.335,77.725,15.52z M76.559,15.799c-1.444,0-2.547-0.279-3.305-0.836
		c0.018,0.39,0.233,0.79,0.649,1.203c0.417,0.412,0.823,0.619,1.22,0.619C75.846,16.785,76.322,16.457,76.559,15.799z
		 M76.586,15.495c0.019-0.118,0.028-0.236,0.028-0.354c0-0.421-0.155-1.19-0.462-2.302c-0.271-1.029-0.37-1.737-0.297-2.125
		c-0.489,0.473-1.257,1.687-2.304,3.643c0.685,0.355,1.175,0.598,1.464,0.733C75.593,15.327,76.115,15.462,76.586,15.495z"/>
</g>
</svg>
